<?xml version="1.0" encoding="UTF-8"?>
<svg xmlns="http://www.w3.org/2000/svg" version="1.1" xmlns:inkscape="http://www.inkscape.org/namespaces/inkscape" xmlns:sodipodi="http://sodipodi.sourceforge.net/DTD/sodipodi-0.dtd" xmlns:svg="http://www.w3.org/2000/svg" viewBox="0 0 38 38">
  <!-- Generator: Adobe Illustrator 29.8.2, SVG Export Plug-In . SVG Version: 2.1.1 Build 3)  -->
  <defs>
    <style>
      .st0 {
        fill: #dff0fe;
      }

      .st1 {
        fill: none;
        stroke: #4788c7;
        stroke-linecap: round;
        stroke-miterlimit: 10;
      }

      .st2 {
        fill: #98ccfd;
      }

      .st3 {
        fill: #4788c7;
      }
    </style>
  </defs>
  <g id="Layer_1" inkscape:version="1.4.2 (f4327f4, 2025-05-13)" sodipodi:docname="Crayon-595b40b65ba036ed117d3815.svg">
    <g>
      <g id="g2">
        <path id="path1" class="st2" d="M36.27,37.5c.39,0,.78-.14.91-.28.28-.28.38-.69.27-1.07l-5.23-13.23-9.34,9.34,13.21,5.22h.17v.02Z"/>
        <path id="path2" class="st3" d="M32.04,23.82l-8.26,8.26,12.43,4.91h.05c.27,0,.51-.09.56-.13.14-.14.2-.35.16-.54l-4.94-12.51M32.41,22.04l5.53,13.97c.16.56,0,1.15-.4,1.56-.25.25-.77.42-1.27.42-.1,0-.2,0-.3-.02l-13.97-5.52,10.41-10.42h0Z"/>
      </g>
      <polygon id="polygon2" class="st0" points="23.78 32.08 32.04 23.82 34.25 29.41 29.37 34.29 23.78 32.08"/>
      <line id="line2" class="st1" x1="36" y1="37.5" x2=".5" y2="37.5"/>
      <g id="g4">
        <path id="path3" class="st0" d="M21.86,33.5c.6,0,1.16-.23,1.58-.65l9.41-9.41c.42-.42.65-.98.65-1.58s-.23-1.16-.65-1.58L13.72,1.15c-.42-.42-.98-.65-1.58-.65s-1.16.23-1.58.65L1.15,10.56c-.87.87-.87,2.29,0,3.16l19.13,19.13c.42.42.98.65,1.58.65Z"/>
        <path id="path4" class="st3" d="M12.14,1c-.46,0-.9.18-1.22.51L1.51,10.92c-.33.33-.51.76-.51,1.22s.18.9.51,1.22l19.13,19.13c.33.33.76.51,1.22.51s.9-.18,1.22-.51l9.41-9.41c.33-.33.51-.76.51-1.22s-.18-.9-.51-1.22L13.37,1.51c-.33-.33-.76-.51-1.22-.51M12.14,0c.7,0,1.4.27,1.93.8l19.13,19.13c1.07,1.07,1.07,2.8,0,3.86l-9.41,9.41c-.53.53-1.23.8-1.93.8s-1.4-.27-1.93-.8L.8,14.07c-1.07-1.07-1.07-2.8,0-3.86L10.21.8c.53-.53,1.23-.8,1.93-.8Z"/>
      </g>
      <rect id="rect4" class="st2" x="13.79" y="18.9" width="16.77" height="6.53" transform="translate(-9.18 22.17) rotate(-45)"/>
    </g>
  </g>
</svg>