<svg version="1.1" viewBox="0 0 39.5 39.5" xmlns="http://www.w3.org/2000/svg">
 <path d="M39.44,37.45l-5-12.65.07-.07c1.11-1.1,1.11-2.9,0-4.01L14.63.83c-.55-.55-1.28-.83-2.01-.83s-1.46.28-2.01.83L.83,10.62c-.55.55-.83,1.28-.83,2s.28,1.46.83,2.01l19.88,19.88c.55.55,1.28.83,2.01.83s1.46-.28,2.01-.83l.02-.02,12.64,5s.1.01.15.01h.36c.45-.04.89-.2,1.12-.43.28-.28.46-.66.48-1.06v-.22c-.01-.11-.03-.23-.06-.34ZM19.29,31.61l-4.8-4.8,12.32-12.33,4.8,4.8-12.32,12.33ZM30.53,35.65l-4.98-1.96,8.08-8.08,1.97,4.97-5.07,5.07Z"/>
</svg>
