<svg version="1.1" viewBox="0 0 39.5 39.5" xmlns="http://www.w3.org/2000/svg">
 <defs>
  <style>.st0 {
        stroke-linejoin: round;
      }

      .st0, .st1 {
        fill: #fff;
        stroke: #000;
        stroke-width: 2.5px;
      }

      .st1 {
        stroke-linejoin: bevel;
      }</style>
 </defs>
 <path class="st0" d="M37.02,38.25c.39,0,.78-.14.91-.28.28-.28.38-.69.27-1.07l-4.9-12.41-8.84,8.84,12.39,4.89h.17v.02h0Z"/>
 <path class="st1" d="M22.61,34.25c.6,0,1.16-.23,1.58-.65l9.41-9.41c.42-.42.65-.98.65-1.58s-.23-1.16-.65-1.58L14.47,1.9c-.42-.42-.98-.65-1.58-.65s-1.16.23-1.58.65L1.9,11.31c-.87.87-.87,2.29,0,3.16l19.13,19.13c.42.42.98.65,1.58.65Z"/>
</svg>
