<svg version="1.1" viewBox="0 0 39.5 39.5" xmlns="http://www.w3.org/2000/svg">
 <defs>
  <style>.st0 {
        fill: #dff0fe;
      }

      .st1 {
        fill: #98ccfd;
      }

      .st2 {
        fill: #4788c7;
      }</style>
 </defs>
 <path class="st1" d="M37.7,38.99c.41,0,.81-.15.95-.29.29-.29.39-.72.28-1.11l-5.44-13.76-9.71,9.71,13.73,5.43h.18v.02h0Z"/>
 <path class="st2" d="M33.3,24.77l-8.59,8.59,12.92,5.11h.05c.28,0,.53-.09.58-.14.15-.15.21-.36.17-.56l-5.13-13.01M33.69,22.92l5.75,14.53c.17.58,0,1.2-.42,1.62-.26.26-.8.44-1.32.44-.1,0-.21,0-.31-.02l-14.52-5.74,10.82-10.83h0Z"/>
 <polygon class="st0" points="24.72 33.36 33.3 24.77 35.6 30.58 30.53 35.65"/>
 <path class="st1" d="M22.72,34.83c.62,0,1.21-.24,1.64-.68l9.78-9.78c.44-.44.68-1.02.68-1.64s-.24-1.21-.68-1.64L14.26,1.2c-.44-.44-1.02-.68-1.64-.68s-1.21.24-1.64.68L1.2,10.98c-.9.9-.9,2.38,0,3.29l19.88,19.89c.44.44,1.02.68,1.64.68h0Z"/>
 <path class="st2" d="M12.62,1.04c-.48,0-.94.19-1.27.53L1.57,11.35c-.34.34-.53.79-.53,1.27s.19.94.53,1.27l19.88,19.89c.34.34.79.53,1.27.53s.94-.19,1.27-.53l9.78-9.78c.34-.34.53-.79.53-1.27s-.19-.94-.53-1.27L13.9,1.57c-.34-.34-.79-.53-1.27-.53M12.62,0c.73,0,1.46.28,2.01.83l19.88,19.89c1.11,1.11,1.11,2.91,0,4.01l-9.78,9.78c-.55.55-1.28.83-2.01.83s-1.46-.28-2.01-.83L.83,14.63c-1.11-1.11-1.11-2.91,0-4.01L10.61.83c.55-.55,1.28-.83,2.01-.83Z"/>
 <rect class="st0" transform="translate(-9.54 23.05) rotate(-45.01)" x="14.34" y="19.65" width="17.43" height="6.79"/>
</svg>
